<svg width="43" height="43" viewBox="0 0 43 43" fill="none" xmlns="http://www.w3.org/2000/svg">
<circle cx="21.5" cy="22.5" r="19.5" fill="#979595" fill-opacity="0.35"/>
<path d="M17.9167 25.0843L21.5 21.501M21.5 21.501L25.0833 17.9176M21.5 21.501L17.9167 17.9176M21.5 21.501L25.0833 25.0843M37.625 21.501C37.625 23.6185 37.2079 25.7154 36.3976 27.6717C35.5872 29.6281 34.3994 31.4057 32.9021 32.9031C31.4048 34.4004 29.6271 35.5882 27.6708 36.3985C25.7144 37.2089 23.6176 37.626 21.5 37.626C19.3824 37.626 17.2856 37.2089 15.3292 36.3985C13.3729 35.5882 11.5952 34.4004 10.0979 32.9031C8.60056 31.4057 7.4128 29.6281 6.60244 27.6717C5.79209 25.7154 5.375 23.6185 5.375 21.501C5.375 17.2244 7.07388 13.1229 10.0979 10.0989C13.1219 7.07486 17.2234 5.37598 21.5 5.37598C25.7766 5.37598 29.8781 7.07486 32.9021 10.0989C35.9261 13.1229 37.625 17.2244 37.625 21.501Z" stroke="black" stroke-width="2.04493" stroke-linecap="round" stroke-linejoin="round"/>
</svg>
